<?xml version="1.0" standalone="no"?>
<!DOCTYPE svg PUBLIC "-//W3C//DTD SVG 20010904//EN"
 "http://www.w3.org/TR/2001/REC-SVG-20010904/DTD/svg10.dtd">
<svg version="1.0" xmlns="http://www.w3.org/2000/svg"
 width="600.000000pt" height="600.000000pt" viewBox="0 0 600.000000 600.000000"
 preserveAspectRatio="xMidYMid meet">
<metadata>
Created by potrace 1.14, written by Peter Selinger 2001-2017
</metadata>
<g transform="translate(0.000000,600.000000) scale(0.100000,-0.100000)"
fill="#000000" stroke="none">
<path d="M892 5985 c-354 -65 -641 -284 -792 -607 -21 -46 -46 -108 -54 -139
-47 -161 -45 -87 -43 -2274 3 -2238 -1 -2078 56 -2244 125 -362 447 -637 826
-705 68 -12 393 -14 2110 -14 1117 -1 2053 3 2080 8 28 5 66 11 85 15 53 10
178 54 245 87 251 126 448 351 538 618 59 174 57 48 54 2300 l-2 2065 -28 100
c-63 226 -190 423 -371 573 -73 61 -246 153 -341 182 -157 47 -16 44 -2225 46
-1677 2 -2079 0 -2138 -11z"/>
</g>
</svg>
